<svg width="40" height="40" viewBox="0 0 40 40" fill="none" xmlns="http://www.w3.org/2000/svg">
<path d="M3.47827 23.4783C5.39926 23.4783 6.95653 21.921 6.95653 20C6.95653 18.079 5.39926 16.5217 3.47827 16.5217C1.55727 16.5217 0 18.079 0 20C0 21.921 1.55727 23.4783 3.47827 23.4783Z" fill="url(#paint0_linear_100_183)"/>
<path d="M33.0435 6.95652C34.9645 6.95652 36.5218 5.39925 36.5218 3.47826C36.5218 1.55727 34.9645 0 33.0435 0C31.1225 0 29.5653 1.55727 29.5653 3.47826C29.5653 5.39925 31.1225 6.95652 33.0435 6.95652Z" fill="url(#paint1_linear_100_183)"/>
<path d="M33.0435 40C34.9645 40 36.5218 38.4427 36.5218 36.5217C36.5218 34.6007 34.9645 33.0435 33.0435 33.0435C31.1225 33.0435 29.5653 34.6007 29.5653 36.5217C29.5653 38.4427 31.1225 40 33.0435 40Z" fill="url(#paint2_linear_100_183)"/>
<path d="M13.9131 20C13.9117 18.6173 14.2112 17.2509 14.7908 15.9956C15.3705 14.7403 16.2163 13.6261 17.2696 12.7304L13.7913 6.66085C11.0311 8.64679 8.94855 11.4337 7.8261 14.6435C8.62467 15.2873 9.26891 16.1019 9.71152 17.0273C10.1541 17.9527 10.3839 18.9655 10.3839 19.9913C10.3839 21.0171 10.1541 22.0299 9.71152 22.9553C9.26891 23.8807 8.62467 24.6952 7.8261 25.3391C8.92676 28.546 10.9845 31.3383 13.7218 33.3391L17.2 27.2695C16.1594 26.3673 15.3267 25.2502 14.7593 23.9953C14.1918 22.7403 13.9031 21.3772 13.9131 20Z" fill="url(#paint3_linear_100_183)"/>
<path d="M33.0435 10.4348C31.2371 10.4357 29.5011 9.73394 28.2028 8.47785C26.9045 7.22175 26.1457 5.50988 26.087 3.70436C25.2247 3.56053 24.3525 3.48493 23.4783 3.47827C21.1652 3.47592 18.8777 3.96188 16.7653 4.90436L20.2435 10.9913C21.2815 10.6201 22.376 10.4318 23.4783 10.4348C25.7235 10.434 27.899 11.2145 29.6316 12.6425C31.3643 14.0705 32.5459 16.0568 32.974 18.2609H39.9305C39.5899 15.0643 38.3133 12.0394 36.2609 9.56523C35.2748 10.1115 34.1706 10.4099 33.0435 10.4348Z" fill="url(#paint4_linear_100_183)"/>
<path d="M33.0435 29.5652C34.1942 29.5787 35.3236 29.8775 36.3304 30.4348C38.3828 27.9606 39.6593 24.9357 40 21.7391H33.0435C32.6132 23.9549 31.4213 25.9504 29.6743 27.3798C27.9274 28.8091 25.7354 29.5822 23.4782 29.5652C22.3876 29.5642 21.3052 29.3759 20.2782 29.0087L16.8 35.0957C18.9017 36.0334 21.1769 36.5192 23.4782 36.5217C24.3582 36.516 25.2363 36.4404 26.1043 36.2957C26.1629 34.4931 26.9193 32.7838 28.2138 31.5282C29.5084 30.2726 31.24 29.5688 33.0435 29.5652Z" fill="url(#paint5_linear_100_183)"/>
<defs>
<linearGradient id="paint0_linear_100_183" x1="20" y1="0" x2="20" y2="40" gradientUnits="userSpaceOnUse">
<stop stop-color="#1539EE"/>
<stop offset="1" stop-color="#2ADDC8"/>
</linearGradient>
<linearGradient id="paint1_linear_100_183" x1="20" y1="0" x2="20" y2="40" gradientUnits="userSpaceOnUse">
<stop stop-color="#1539EE"/>
<stop offset="1" stop-color="#2ADDC8"/>
</linearGradient>
<linearGradient id="paint2_linear_100_183" x1="20" y1="0" x2="20" y2="40" gradientUnits="userSpaceOnUse">
<stop stop-color="#1539EE"/>
<stop offset="1" stop-color="#2ADDC8"/>
</linearGradient>
<linearGradient id="paint3_linear_100_183" x1="20" y1="0" x2="20" y2="40" gradientUnits="userSpaceOnUse">
<stop stop-color="#1539EE"/>
<stop offset="1" stop-color="#2ADDC8"/>
</linearGradient>
<linearGradient id="paint4_linear_100_183" x1="20" y1="0" x2="20" y2="40" gradientUnits="userSpaceOnUse">
<stop stop-color="#1539EE"/>
<stop offset="1" stop-color="#2ADDC8"/>
</linearGradient>
<linearGradient id="paint5_linear_100_183" x1="20" y1="0" x2="20" y2="40" gradientUnits="userSpaceOnUse">
<stop stop-color="#1539EE"/>
<stop offset="1" stop-color="#2ADDC8"/>
</linearGradient>
</defs>
</svg>
