<svg width="228" height="50" viewBox="0 0 228 50" fill="none" xmlns="http://www.w3.org/2000/svg">
<path d="M84.6893 21.2963C84.6893 23.179 84.2586 24.9074 83.3971 26.4815C82.5357 28.0247 81.2128 29.2747 79.4284 30.2315C77.644 31.1883 75.4289 31.6667 72.7831 31.6667H67.8913V43.3333H60V10.8333H72.7831C75.3674 10.8333 77.5517 11.2809 79.3361 12.1759C81.1205 13.071 82.4588 14.3056 83.351 15.8796C84.2432 17.4537 84.6893 19.2593 84.6893 21.2963ZM72.1831 25.3704C73.6906 25.3704 74.8136 25.0154 75.5519 24.3056C76.2903 23.5957 76.6595 22.5926 76.6595 21.2963C76.6595 20 76.2903 18.9969 75.5519 18.287C74.8136 17.5772 73.6906 17.2222 72.1831 17.2222H67.8913V25.3704H72.1831Z" fill="white"/>
<path d="M92.7663 14.8148C91.3819 14.8148 90.2435 14.4136 89.3513 13.6111C88.4899 12.7778 88.0592 11.7593 88.0592 10.5556C88.0592 9.32099 88.4899 8.30247 89.3513 7.5C90.2435 6.66667 91.3819 6.25 92.7663 6.25C94.12 6.25 95.2276 6.66667 96.089 7.5C96.9812 8.30247 97.4273 9.32099 97.4273 10.5556C97.4273 11.7593 96.9812 12.7778 96.089 13.6111C95.2276 14.4136 94.12 14.8148 92.7663 14.8148ZM96.6889 17.5V43.3333H88.7976V17.5H96.6889Z" fill="white"/>
<path d="M117.637 43.3333L112.699 36.1574L108.545 43.3333H100.008L108.499 30.1389L99.7772 17.5H108.638L113.576 24.6296L117.729 17.5H126.266L117.637 30.5093L126.497 43.3333H117.637Z" fill="white"/>
<path d="M139.967 38.6111L147.166 17.8241H152.75L143.059 43.3333H136.783L127.138 17.8241H132.768L139.967 38.6111Z" fill="white"/>
<path d="M180.032 29.9537C180.032 30.9105 179.97 31.7747 179.847 32.5463H160.419C160.573 34.5833 161.326 36.2191 162.68 37.4537C164.034 38.6883 165.695 39.3056 167.664 39.3056C170.495 39.3056 172.494 38.1173 173.663 35.7407H179.34C178.571 38.0864 177.171 40.0154 175.14 41.5278C173.14 43.0093 170.648 43.75 167.664 43.75C165.234 43.75 163.049 43.2099 161.111 42.1296C159.204 41.0185 157.696 39.4753 156.589 37.5C155.512 35.4938 154.973 33.179 154.973 30.5556C154.973 27.9321 155.496 25.6327 156.542 23.6574C157.619 21.6512 159.111 20.108 161.019 19.0278C162.957 17.9475 165.172 17.4074 167.664 17.4074C170.064 17.4074 172.202 17.9321 174.079 18.9815C175.955 20.0309 177.417 21.5123 178.463 23.4259C179.509 25.3086 180.032 27.4846 180.032 29.9537ZM174.54 28.287C174.509 26.3426 173.817 24.784 172.464 23.6111C171.11 22.4383 169.433 21.8519 167.433 21.8519C165.618 21.8519 164.065 22.4383 162.772 23.6111C161.48 24.7531 160.711 26.3117 160.465 28.287H174.54Z" fill="white"/>
<path d="M198.038 17.4074C200.038 17.4074 201.822 17.8241 203.392 18.6574C204.991 19.4907 206.237 20.7253 207.13 22.3611C208.022 23.9969 208.468 25.9722 208.468 28.287V43.3333H203.253V29.0741C203.253 26.7901 202.684 25.0463 201.546 23.8426C200.407 22.608 198.854 21.9907 196.885 21.9907C194.916 21.9907 193.347 22.608 192.178 23.8426C191.039 25.0463 190.47 26.7901 190.47 29.0741V43.3333H185.209V17.8241H190.47V20.7407C191.331 19.6914 192.424 18.8735 193.747 18.287C195.1 17.7006 196.531 17.4074 198.038 17.4074Z" fill="white"/>
<path d="M221.316 22.1296V36.25C221.316 37.2068 221.531 37.9012 221.962 38.3333C222.424 38.7346 223.193 38.9352 224.27 38.9352H227.5V43.3333H223.347C220.978 43.3333 219.163 42.7778 217.901 41.6667C216.64 40.5556 216.009 38.75 216.009 36.25V22.1296H213.009V17.8241H216.009V11.4815H221.316V17.8241H227.5V22.1296H221.316Z" fill="white"/>
<path d="M4.34783 29.3478C6.74907 29.3478 8.69566 27.4012 8.69566 25C8.69566 22.5988 6.74907 20.6522 4.34783 20.6522C1.94659 20.6522 0 22.5988 0 25C0 27.4012 1.94659 29.3478 4.34783 29.3478Z" fill="white"/>
<path d="M41.3044 8.69565C43.7056 8.69565 45.6522 6.74906 45.6522 4.34783C45.6522 1.94659 43.7056 0 41.3044 0C38.9032 0 36.9566 1.94659 36.9566 4.34783C36.9566 6.74906 38.9032 8.69565 41.3044 8.69565Z" fill="white"/>
<path d="M41.3044 50C43.7056 50 45.6522 48.0534 45.6522 45.6522C45.6522 43.2509 43.7056 41.3043 41.3044 41.3043C38.9032 41.3043 36.9566 43.2509 36.9566 45.6522C36.9566 48.0534 38.9032 50 41.3044 50Z" fill="white"/>
<path d="M17.3913 25C17.3896 23.2716 17.7641 21.5636 18.4886 19.9945C19.2131 18.4254 20.2703 17.0326 21.587 15.913L17.2392 8.32606C13.7889 10.8085 11.1857 14.2921 9.78262 18.3043C10.7808 19.1092 11.5861 20.1273 12.1394 21.2841C12.6927 22.4409 12.9798 23.7068 12.9798 24.9891C12.9798 26.2714 12.6927 27.5373 12.1394 28.6941C11.5861 29.8509 10.7808 30.869 9.78262 31.6739C11.1585 35.6826 13.7306 39.1728 17.1522 41.6739L21.5 34.0869C20.1992 32.9591 19.1584 31.5628 18.4491 29.9941C17.7398 28.4254 17.3789 26.7215 17.3913 25Z" fill="white"/>
<path d="M41.3044 13.0435C39.0463 13.0447 36.8763 12.1674 35.2535 10.5973C33.6306 9.02719 32.6822 6.88734 32.6088 4.63045C31.5309 4.45066 30.4406 4.35617 29.3479 4.34784C26.4565 4.3449 23.5971 4.95235 20.9566 6.13045L25.3044 13.7391C26.6019 13.2752 27.97 13.0398 29.3479 13.0435C32.1544 13.0425 34.8738 14.0182 37.0396 15.8031C39.2053 17.5881 40.6824 20.0711 41.2175 22.8261H49.9131C49.4873 18.8304 47.8917 15.0493 45.3262 11.9565C44.0935 12.6394 42.7133 13.0124 41.3044 13.0435Z" fill="white"/>
<path d="M41.3043 36.9565C42.7427 36.9734 44.1545 37.3469 45.413 38.0435C47.9785 34.9507 49.5742 31.1696 50 27.1739H41.3043C40.7665 29.9437 39.2766 32.438 37.0929 34.2247C34.9092 36.0114 32.1692 36.9778 29.3478 36.9565C27.9845 36.9552 26.6315 36.7199 25.3478 36.2609L21 43.8696C23.6271 45.0417 26.4711 45.649 29.3478 45.6522C30.4478 45.645 31.5454 45.5505 32.6304 45.3696C32.7037 43.1164 33.6491 40.9798 35.2673 39.4103C36.8855 37.8407 39.05 36.961 41.3043 36.9565Z" fill="white"/>
</svg>
